<?xml version="1.0" encoding="UTF-8"?>
<svg id="Layer_2" data-name="Layer 2" xmlns="http://www.w3.org/2000/svg" viewBox="0 0 318.75 309.27">
  <defs>
    <style>
      .cls-1 {
        fill: #4eb748;
      }

      .cls-1, .cls-2, .cls-3, .cls-4, .cls-5, .cls-6 {
        stroke-width: 0px;
      }

      .cls-2 {
        fill: #955a32;
      }

      .cls-3 {
        fill: #fff;
      }

      .cls-4 {
        fill: #3c2413;
      }

      .cls-5 {
        fill: #009d4c;
      }

      .cls-6 {
        fill: #006b39;
      }
    </style>
  </defs>
  <g id="Layer_2-2" data-name="Layer 2">
    <g>
      <path class="cls-4" d="m203.14,309.27h42.39s-70.46-20.13-70.46-71.16,61.09-51.37,61.09-51.37c0,0-24.64-20.83-65.25,13.88,0,0-38.53-30.2,15.97-55.54,0,0-14.23-7.98-30.89,10.41,0,0-.93-2.97,4.63-14.96,5.55-11.99,21.98-24.49,23.37-43.93s-8.56-28.92-8.56-28.92c0,0,3.93,30.31-23.83,59.01,0,0-11.11-7.87-8.56-22.91,0,0-14.12,14.35.23,34.71,0,0-10.64,18.97-6.48,35.87,0,0-50.56-17.82-40.84-69.19,0,0-14.23,5.9-11.45,31.93,0,0-9.72-9.02-17.01-3.82,0,0,23.95,12.31,25.34,28.27,0,0-40.96-8.14-49.64,23.1,0,0,59.06-42.14,115.4,35.19.17.24-1.39,6.7-1.44,7-8.64,56.81,42.85,81.3,46,82.42Z"/>
      <path class="cls-4" d="m147.64,309.27h44.43s-54.84-22.45-40.34-87.32c0,0-1.64-5.6-14.68-16.67,0,0-47.02,59.56,10.6,103.99Z"/>
      <path class="cls-4" d="m133.12,202.36s-6.08,7.53-9.62,13.58c-15.27-27.12-55.26-27.35-55.26-27.35,0,0,24.27-20.95,64.88,13.76Z"/>
      <path class="cls-4" d="m72.67,309.27h64.67s-16-10.41-20.86-30.08c0,0-11.41,19.67-43.81,30.08Z"/>
      <path class="cls-4" d="m165.77,173.48s52.4-19.05,42.69-70.42c0,0,14.23,5.9,11.45,31.93,0,0,9.72-9.02,17.01-3.82,0,0-23.95,13.54-25.34,29.5,0,0,40.96-9.37,49.64,21.87,0,0-42.55-29.08-90.15,10.63,0,0-10.92-12.5-5.29-19.7Z"/>
      <g>
        <path class="cls-6" d="m160.9,59.73c-.14-.77-.25-1.54-.37-2.31-1.43-10.22-1.3-20.48-1.52-30.79-2.57,10.14-2.79,20.96-.36,31.16.18.73.38,1.44.6,2.16-4.62-4.23-29.52-29.46.71-56.84,29.76,26.95,6.09,51.82.93,56.62Z"/>
        <path class="cls-3" d="m160.9,59.73c-.59.55-.93.84-.93.84,0,0-.26-.22-.71-.62-.22-.71-.42-1.43-.6-2.16-2.43-10.2-2.21-21.02.36-31.16.22,10.31.09,20.58,1.52,30.79.12.77.23,1.54.37,2.31Z"/>
      </g>
      <g>
        <path class="cls-5" d="m250.32,123.15c1.45-4.34,10.87-28.42,38.1-16.4-9.13,27.83-32.73,19.44-37.47,17.43.47-.32.96-.63,1.43-.93,6.39-3.98,13.26-6.95,20.07-10.15-7.52,1.3-14.79,4.36-20.87,9.02-.43.34-.85.68-1.26,1.04Z"/>
        <path class="cls-5" d="m283.48,224.78c-28.28,7.64-34.21-16.69-35.13-21.75.53.22,1.05.45,1.57.69,6.83,3.15,13.09,7.27,19.5,11.21-5.21-5.57-11.76-9.98-18.99-12.5-.52-.17-1.04-.34-1.56-.49,4.43-1.17,29.73-6.51,34.62,22.85Z"/>
        <path class="cls-3" d="m272.45,113.09c-6.81,3.21-13.69,6.17-20.07,10.15-.47.31-.96.61-1.43.93-.53-.23-.83-.37-.83-.37,0,0,.07-.24.2-.66.41-.36.83-.7,1.26-1.04,6.08-4.65,13.35-7.72,20.87-9.02Z"/>
        <path class="cls-3" d="m269.41,214.92c-6.42-3.93-12.67-8.06-19.5-11.21-.52-.23-1.04-.47-1.57-.69-.1-.58-.14-.9-.14-.9,0,0,.23-.07.66-.19.52.15,1.04.31,1.56.49,7.23,2.53,13.78,6.93,18.99,12.5Z"/>
        <path class="cls-5" d="m214.56,30.5c13.22,26.14-9.4,36.89-14.17,38.82.11-.56.23-1.12.36-1.67,1.7-7.33,4.46-14.29,7.01-21.37-4.4,6.23-7.38,13.55-8.39,21.13-.06.55-.12,1.09-.15,1.63-2.04-4.09-12.41-27.79,15.34-38.53Z"/>
        <path class="cls-3" d="m207.76,46.27c-2.55,7.08-5.32,14.04-7.01,21.37-.12.55-.25,1.11-.36,1.67-.54.22-.85.33-.85.33,0,0-.12-.22-.32-.61.04-.54.09-1.08.15-1.63,1.01-7.58,3.99-14.9,8.39-21.13Z"/>
        <path class="cls-5" d="m108.42,28.8c27.84,9.13,19.45,32.73,17.43,37.46-.31-.47-.62-.95-.93-1.43-3.98-6.39-6.95-13.26-10.15-20.07,1.3,7.52,4.36,14.8,9.01,20.88.34.43.68.85,1.04,1.26-4.34-1.45-28.42-10.87-16.41-38.1Z"/>
        <path class="cls-3" d="m124.93,64.83c.31.48.61.96.93,1.43-.23.54-.37.84-.37.84,0,0-.23-.07-.65-.2-.36-.41-.71-.83-1.04-1.26-4.65-6.08-7.71-13.36-9.01-20.88,3.2,6.81,6.17,13.69,10.15,20.07Z"/>
        <path class="cls-3" d="m71,116.81c.22.55.33.85.33.85,0,0-.22.12-.61.32-.55-.03-1.09-.09-1.63-.15-7.58-1.01-14.9-3.98-21.14-8.38,7.09,2.54,14.04,5.32,21.38,7.01.55.12,1.11.25,1.67.35Z"/>
        <path class="cls-3" d="m70.54,201.83s-.02.24-.09.68c-.34.42-.7.84-1.07,1.24-5.21,5.61-11.87,9.85-19.07,12.39,6.18-4.3,12.46-8.38,18.08-13.38.42-.38.84-.77,1.25-1.16.57.14.89.23.89.23Z"/>
        <path class="cls-5" d="m71,116.81c-.56-.1-1.12-.23-1.67-.35-7.33-1.7-14.29-4.47-21.38-7.01,6.24,4.4,13.55,7.38,21.14,8.38.54.07,1.08.12,1.63.15-4.09,2.05-27.79,12.41-38.54-15.34,26.14-13.23,36.89,9.39,38.82,14.16Z"/>
        <path class="cls-5" d="m69.39,203.75c.37-.41.73-.82,1.07-1.24-.7,4.52-5.94,29.85-34.8,22.57,4.33-28.97,29-24.67,34-23.48-.41.39-.83.78-1.25,1.16-5.62,5-11.91,9.08-18.08,13.38,7.2-2.54,13.85-6.79,19.07-12.39Z"/>
      </g>
      <g>
        <path class="cls-6" d="m229.8,89.47c.45-.64.91-1.27,1.37-1.89,6.22-8.23,13.56-15.4,20.7-22.85-8.99,5.35-16.79,12.85-22.29,21.78-.38.64-.75,1.29-1.1,1.95-.27-6.26-.04-41.71,40.69-39.69,1.98,40.1-32.33,40.95-39.38,40.7Z"/>
        <path class="cls-3" d="m229.8,89.47c-.8-.03-1.25-.07-1.25-.07,0,0-.03-.33-.06-.94.35-.66.72-1.31,1.1-1.95,5.49-8.94,13.3-16.43,22.29-21.78-7.14,7.45-14.49,14.62-20.7,22.85-.46.63-.93,1.26-1.37,1.89Z"/>
      </g>
      <g>
        <path class="cls-6" d="m257.48,159.22c.77-.14,1.54-.25,2.31-.37,10.22-1.43,20.48-1.3,30.79-1.52-10.14-2.57-20.96-2.79-31.16-.36-.73.18-1.44.38-2.16.6,4.23-4.62,29.46-29.52,56.84.71-26.95,29.76-51.82,6.09-56.62.93Z"/>
        <path class="cls-3" d="m257.48,159.22c-.55-.59-.84-.93-.84-.93,0,0,.22-.26.62-.71.71-.22,1.43-.42,2.16-.6,10.2-2.43,21.02-2.21,31.16.36-10.31.22-20.58.09-30.79,1.52-.77.12-1.54.23-2.31.37Z"/>
      </g>
      <g>
        <path class="cls-6" d="m91.15,87.41c-.64-.45-1.27-.91-1.89-1.37-8.23-6.22-15.4-13.56-22.85-20.7,5.35,8.99,12.85,16.79,21.78,22.29.64.38,1.29.75,1.95,1.1-6.26.27-41.71.04-39.69-40.69,40.1-1.98,40.95,32.33,40.7,39.38Z"/>
        <path class="cls-3" d="m91.15,87.41c-.03.8-.07,1.25-.07,1.25,0,0-.33.03-.94.06-.66-.35-1.31-.72-1.95-1.1-8.94-5.49-16.43-13.3-21.78-22.29,7.45,7.14,14.62,14.49,22.85,20.7.63.46,1.26.93,1.89,1.37Z"/>
      </g>
      <g>
        <path class="cls-6" d="m61.41,156.31c-.77.14-1.54.25-2.31.37-10.22,1.43-20.48,1.3-30.79,1.52,10.14,2.57,20.96,2.79,31.16.36.73-.18,1.44-.38,2.16-.6-4.23,4.62-29.46,29.52-56.84-.71,26.95-29.76,51.82-6.09,56.62-.93Z"/>
        <path class="cls-3" d="m61.41,156.31c.55.59.84.93.84.93,0,0-.22.26-.62.71-.71.22-1.43.42-2.16.6-10.2,2.43-21.02,2.21-31.16-.36,10.31-.22,20.58-.09,30.79-1.52.77-.12,1.54-.23,2.31-.37Z"/>
      </g>
      <g>
        <path class="cls-1" d="m316.84,200.51c-21.14,6.37-26.14-11.84-26.94-15.63.4.15.8.32,1.19.48,5.22,2.23,10.02,5.2,14.94,8.03-4.05-4.09-9.08-7.27-14.59-9.01-.39-.12-.79-.23-1.19-.33,3.31-.98,22.26-5.55,26.58,16.47Z"/>
        <path class="cls-1" d="m318.51,127.3c-18.59,11.92-28.38-4.22-30.19-7.65.42.04.85.09,1.28.14,5.63.71,11.06,2.26,16.56,3.62-5.02-2.82-10.73-4.49-16.49-4.67-.41,0-.82,0-1.24.01,2.91-1.84,19.89-11.43,30.08,8.55Z"/>
        <path class="cls-3" d="m306.03,193.39c-4.92-2.83-9.72-5.8-14.94-8.03-.39-.16-.79-.33-1.19-.48-.09-.44-.13-.68-.13-.68,0,0,.17-.06.49-.16.4.1.79.21,1.19.33,5.5,1.75,10.54,4.92,14.59,9.01Z"/>
        <path class="cls-3" d="m306.16,123.41c-5.51-1.36-10.93-2.91-16.56-3.62-.42-.05-.85-.1-1.28-.14-.21-.39-.31-.61-.31-.61,0,0,.15-.1.43-.28.41-.02.82-.02,1.24-.01,5.77.18,11.48,1.85,16.49,4.67Z"/>
        <path class="cls-1" d="m270.53,83.85c1.65-3.03,11.81-19.66,30.43-7.15-10.44,19.45-26.85,10.12-30.1,8,.39-.17.79-.34,1.19-.5,5.26-2.11,10.76-3.41,16.23-4.89-5.75-.03-11.56,1.28-16.68,3.94-.36.19-.72.39-1.07.61Z"/>
        <path class="cls-3" d="m271.6,83.24c5.13-2.66,10.93-3.97,16.68-3.94-5.48,1.48-10.97,2.78-16.23,4.89-.4.16-.79.33-1.19.5-.37-.24-.57-.39-.57-.39,0,0,.08-.17.24-.45.35-.22.71-.42,1.07-.61Z"/>
        <path class="cls-1" d="m248.05,102.22c.52,22.07-18.37,22.05-22.23,21.81.25-.34.52-.68.78-1.02,3.53-4.44,7.68-8.27,11.71-12.26-5.02,2.82-9.42,6.82-12.56,11.65-.22.35-.44.7-.63,1.06-.06-3.45.57-22.93,22.94-21.24Z"/>
        <path class="cls-1" d="m223.06,38.97c.76-3.36,5.98-22.15,27.32-15.21-4.72,21.57-23.06,17.08-26.76,15.94.33-.28.67-.54,1-.81,4.49-3.47,9.42-6.23,14.28-9.15-5.54,1.55-10.76,4.4-14.97,8.35-.3.29-.58.58-.87.88Z"/>
        <path class="cls-1" d="m255.98,148.51c-15.23,15.99-28.58,2.63-31.14-.27.42-.06.85-.12,1.27-.17,5.64-.64,11.29-.43,16.96-.41-5.54-1.56-11.49-1.83-17.13-.63-.41.09-.8.19-1.2.3,2.4-2.48,16.61-15.83,31.24,1.17Z"/>
        <path class="cls-3" d="m243.06,147.66c-5.67-.02-11.32-.23-16.96.41-.42.06-.85.11-1.27.17-.3-.33-.45-.52-.45-.52,0,0,.12-.14.35-.38.4-.11.79-.21,1.2-.3,5.64-1.2,11.59-.93,17.13.63Z"/>
        <path class="cls-3" d="m238.31,110.74c-4.03,3.99-8.17,7.82-11.71,12.26-.26.34-.53.68-.78,1.02-.44-.02-.69-.06-.69-.06,0,0-.01-.18-.02-.52.2-.36.41-.71.63-1.06,3.15-4.83,7.55-8.84,12.56-11.65Z"/>
        <path class="cls-3" d="m238.9,29.74c-4.86,2.92-9.79,5.67-14.28,9.15-.33.27-.67.53-1,.81-.42-.14-.65-.22-.65-.22,0,0,.03-.18.1-.5.28-.3.57-.59.87-.88,4.2-3.95,9.42-6.8,14.97-8.35Z"/>
        <path class="cls-1" d="m213.28,77.06c3.68,21.78-15.02,24.46-18.88,24.78.2-.37.41-.75.63-1.12,2.86-4.89,6.41-9.29,9.83-13.82-4.56,3.51-8.34,8.11-10.76,13.34-.17.38-.33.76-.48,1.14-.55-3.4-2.72-22.77,19.66-24.31Z"/>
        <path class="cls-1" d="m202.19.37c6.37,21.14-11.83,26.14-15.62,26.95.15-.4.32-.8.48-1.19,2.23-5.22,5.2-10.02,8.03-14.94-4.09,4.05-7.27,9.08-9.02,14.58-.12.39-.23.79-.33,1.19-.98-3.31-5.55-22.26,16.46-26.58Z"/>
        <path class="cls-1" d="m202.03,114.52c3.68,21.77-15.02,24.46-18.88,24.78.2-.38.41-.75.63-1.12,2.86-4.9,6.41-9.29,9.83-13.82-4.56,3.5-8.34,8.1-10.76,13.34-.17.37-.33.76-.48,1.14-.55-3.41-2.72-22.78,19.66-24.31Z"/>
        <path class="cls-3" d="m204.86,86.9c-3.42,4.53-6.97,8.92-9.83,13.82-.22.37-.42.75-.63,1.12-.44.04-.69.04-.69.04,0,0-.04-.18-.1-.51.15-.38.31-.76.48-1.14,2.42-5.23,6.2-9.83,10.76-13.34Z"/>
        <path class="cls-3" d="m195.07,11.18c-2.83,4.92-5.8,9.72-8.03,14.94-.16.39-.33.79-.48,1.19-.44.09-.68.13-.68.13,0,0-.06-.18-.15-.49.1-.4.21-.8.33-1.19,1.75-5.5,4.92-10.53,9.02-14.58Z"/>
        <path class="cls-3" d="m193.61,124.36c-3.42,4.53-6.97,8.92-9.83,13.82-.22.37-.42.74-.63,1.12-.44.04-.69.04-.69.04,0,0-.04-.18-.1-.51.15-.38.31-.76.48-1.14,2.42-5.24,6.2-9.83,10.76-13.34Z"/>
        <path class="cls-1" d="m144.15,66.27c20.5,8.22,13.04,25.56,11.3,29.03-.22-.37-.42-.75-.63-1.12-2.69-5-4.59-10.32-6.66-15.59.61,5.72,2.56,11.34,5.77,16.14.23.34.47.67.73,1-3.2-1.3-20.86-9.56-10.49-29.45Z"/>
        <path class="cls-3" d="m154.81,94.18c.21.37.42.75.63,1.12-.2.39-.33.61-.33.61,0,0-.17-.06-.48-.18-.25-.33-.49-.66-.73-1-3.2-4.8-5.16-10.42-5.77-16.14,2.08,5.27,3.98,10.6,6.66,15.59Z"/>
        <path class="cls-3" d="m134.34,150.75c.18.4.28.63.28.63,0,0-.16.1-.45.26-.41,0-.82-.03-1.23-.06-5.75-.49-11.36-2.46-16.21-5.56,5.42,1.67,10.76,3.5,16.34,4.51.42.07.85.15,1.27.21Z"/>
        <path class="cls-1" d="m134.34,150.75c-.42-.06-.85-.14-1.27-.21-5.58-1.01-10.92-2.85-16.34-4.51,4.86,3.09,10.47,5.07,16.21,5.56.41.02.82.05,1.23.06-3.01,1.68-20.47,10.34-29.56-10.16,19.2-10.9,28.11,5.75,29.74,9.27Z"/>
        <path class="cls-1" d="m116.98.25c21.57,4.71,17.09,23.06,15.94,26.76-.28-.33-.55-.67-.81-1-3.47-4.49-6.23-9.42-9.15-14.28,1.55,5.54,4.41,10.76,8.36,14.97.29.3.58.58.88.86-3.36-.76-22.15-5.97-15.22-27.31Z"/>
        <path class="cls-3" d="m132.12,26.01c.26.33.53.67.81,1-.14.42-.22.65-.22.65,0,0-.18-.03-.5-.1-.3-.28-.59-.57-.88-.86-3.95-4.2-6.81-9.43-8.36-14.97,2.93,4.86,5.68,9.79,9.15,14.28Z"/>
        <path class="cls-3" d="m126.92,128.06c.02.44.02.69.02.69,0,0-.18.03-.51.08-.38-.16-.75-.33-1.12-.5-5.17-2.57-9.66-6.47-13.04-11.13,4.44,3.54,8.73,7.2,13.55,10.2.37.22.74.44,1.11.66Z"/>
        <path class="cls-1" d="m126.92,128.06c-.37-.22-.74-.44-1.11-.66-4.82-3-9.11-6.66-13.55-10.2,3.38,4.65,7.87,8.56,13.04,11.13.37.17.74.34,1.12.5-3.42.46-22.84,2.1-23.77-20.31,21.87-3.08,24.04,15.67,24.25,19.55Z"/>
        <path class="cls-1" d="m103.3,73.22c21.98,2.1,19.73,20.84,19.04,24.66-.31-.3-.62-.6-.92-.9-3.99-4.04-7.31-8.61-10.8-13.08,2.2,5.32,5.66,10.16,10.09,13.85.32.26.65.51.98.76-3.43-.35-22.71-3.28-18.38-25.29Z"/>
        <path class="cls-3" d="m122.34,97.88c-.08.43-.14.67-.14.67,0,0-.18,0-.52-.04-.33-.25-.66-.5-.98-.76-4.43-3.69-7.89-8.54-10.09-13.85,3.49,4.47,6.81,9.04,10.8,13.08.3.3.61.6.92.9Z"/>
        <path class="cls-3" d="m95.59,39.05c.09.44.13.68.13.68,0,0-.17.06-.49.15-.4-.1-.79-.21-1.19-.33-5.5-1.75-10.54-4.92-14.59-9.01,4.92,2.82,9.72,5.8,14.94,8.02.39.17.79.33,1.19.48Z"/>
        <path class="cls-1" d="m95.59,39.05c-.4-.15-.8-.31-1.19-.48-5.22-2.23-10.02-5.2-14.94-8.02,4.05,4.09,9.08,7.26,14.59,9.01.39.12.79.23,1.19.33-3.31.98-22.26,5.55-26.58-16.46,21.14-6.37,26.14,11.83,26.94,15.62Z"/>
        <path class="cls-3" d="m48.24,84.06c.21.39.31.61.31.61,0,0-.15.11-.44.29-.41.01-.82.01-1.23,0-5.77-.17-11.48-1.85-16.49-4.67,5.51,1.37,10.93,2.91,16.56,3.63.42.05.85.1,1.28.14Z"/>
        <path class="cls-1" d="m46.88,84.97c.41,0,.82,0,1.23,0-2.91,1.84-19.88,11.43-30.07-8.56,18.59-11.92,28.38,4.22,30.19,7.65-.42-.04-.85-.09-1.28-.14-5.63-.71-11.06-2.26-16.56-3.63,5.02,2.82,10.73,4.5,16.49,4.67Z"/>
        <path class="cls-3" d="m30.92,119.37s-.08.17-.23.46c-.35.22-.71.41-1.08.61-5.12,2.65-10.93,3.96-16.68,3.94,5.48-1.48,10.97-2.78,16.24-4.89.39-.17.79-.33,1.19-.5.37.25.57.39.57.39Z"/>
        <path class="cls-1" d="m29.61,120.43c.36-.2.73-.39,1.08-.61-1.65,3.03-11.82,19.66-30.44,7.15,10.45-19.45,26.85-10.12,30.11-8-.39.18-.79.34-1.19.5-5.27,2.11-10.76,3.41-16.24,4.89,5.75.02,11.56-1.29,16.68-3.94Z"/>
        <path class="cls-3" d="m29.35,184.5s-.03.18-.1.51c-.28.3-.57.59-.87.87-4.2,3.96-9.42,6.81-14.97,8.36,4.87-2.93,9.8-5.67,14.28-9.15.34-.26.68-.53,1-.81.42.13.66.22.66.22Z"/>
        <path class="cls-1" d="m28.38,185.88c.3-.28.59-.57.87-.87-.76,3.36-5.98,22.15-27.31,15.21,4.71-21.57,23.06-17.09,26.76-15.94-.33.28-.66.54-1,.81-4.48,3.48-9.41,6.23-14.28,9.15,5.54-1.55,10.77-4.4,14.97-8.36Z"/>
      </g>
      <path class="cls-2" d="m152.11,304.76c-22.07-12.98-33.58-40.29-27.33-65.15,2.28-9.49,6.68-18.51,12.56-26.08-3.43,8.98-6.3,17.8-7.61,27.03-3.89,23.95,5.91,46.98,22.38,64.2h0Z"/>
      <path class="cls-2" d="m205.73,304.12c-22.97-8.96-40.86-30.88-44.38-55.4-1.12-8.2-.71-16.54,1.33-24.38.44,8.09,1.37,15.93,3.3,23.47,5.81,22.99,21.23,41.88,39.75,56.32h0Z"/>
      <path class="cls-2" d="m91.27,304.76c7.35-4.32,15.25-8.92,21.17-15.09.97-.87,1.76-1.9,2.75-2.78-.11.66-.27,1.31-.44,1.96-2.95,9.66-13.55,16.35-23.48,15.91h0Z"/>
      <path class="cls-2" d="m162.2,213.53c-9.13-10.51-18.96-20.05-30.25-28.08-6.96-4.89-13.86-8.57-21.57-12.42,22.21,2.3,43.69,19.91,51.81,40.5h0Z"/>
      <path class="cls-2" d="m180.04,171.97c8.12-6.06,15.5-12.53,21.59-20.51,3.66-4.89,6.34-9.9,9.22-15.5.15,17.15-14.18,32.96-30.8,36.02h0Z"/>
      <path class="cls-2" d="m142.17,173.02c-4.95-11.3-2.3-27.99,8.33-35.19-4.7,11.5-6.09,23.06-8.33,35.19h0Z"/>
    </g>
  </g>
</svg>